<?xml version="1.0" encoding="UTF-8"?>
<svg width="80px" height="80px" viewBox="0 0 80 80" version="1.1" xmlns="http://www.w3.org/2000/svg" xmlns:xlink="http://www.w3.org/1999/xlink">
    <title>Icons/GV gain/Empowering Others</title>
    <g id="Icons/GV-gain/Empowering-Others" stroke="none" stroke-width="1" fill="none" fill-rule="evenodd">
        <g id="Empowering">
            <path d="M79.4447059,39.7215686 C79.4447059,61.6596078 61.6603922,79.4439216 39.7223529,79.4439216 C17.7843137,79.4439216 0,61.6596078 0,39.7215686 C0,17.7835294 17.7843137,0 39.7223529,0 C61.6603922,0 79.4447059,17.7835294 79.4447059,39.7215686" id="Fill-137" fill="#E05543"></path>
            <path d="M29.9058824,70.1960784 C29.0117647,70.1960784 28.1584314,70.0298039 27.3678431,69.7027451 C23.852549,68.2462745 22.0470588,63.8698039 21.9607843,57.7843137 C22.0996078,57.7866667 22.2392157,57.787451 22.3803922,57.787451 C23.2760784,57.787451 24.2,57.7521569 25.1482353,57.6839216 C25.1992157,62.5921569 26.4431373,65.9239216 28.5686275,66.8047059 C28.9819608,66.974902 29.4188235,67.0588235 29.9058824,67.0588235 C31.9145098,67.0588235 34.5709804,65.5639216 37.4156863,62.7796078 C38.1372549,63.6141176 38.8627451,64.3866667 39.5898039,65.0933333 C36.2439216,68.3458824 32.8823529,70.1960784 29.9058824,70.1960784 M41.7639216,62.7796078 C41.0486275,62.08 40.3215686,61.2980392 39.5898039,60.4384314 C40.7670588,59.054902 41.9560784,57.4698039 43.1262745,55.694902 C44.2156863,55.9984314 45.2941176,56.2705882 46.3584314,56.5105882 C44.8776471,58.8596078 43.3317647,60.9654902 41.7639216,62.7796078 M22.3803922,54.6501961 C22.2721569,54.6501961 22.1647059,54.6494118 22.0580392,54.6478431 C22.2313725,52.254902 22.6305882,49.6643137 23.254902,46.9341176 C24.1788235,47.5192157 25.1372549,48.0917647 26.1247059,48.6494118 C25.694902,50.7388235 25.4117647,52.7082353 25.2658824,54.5247059 C24.267451,54.6078431 23.3035294,54.6501961 22.3803922,54.6501961 M48.0572549,53.6556863 C47.0078431,53.4384314 45.9396078,53.187451 44.8588235,52.9027451 C44.9278431,52.785098 44.9960784,52.6666667 45.065098,52.547451 C46.7003922,51.8619608 48.2752941,51.1427451 49.7819608,50.3960784 C49.2227451,51.5192157 48.6470588,52.6062745 48.0572549,53.6556863 M47.4368627,48.0439216 C48.0337255,46.8031373 48.6141176,45.5090196 49.1709804,44.1647059 C49.72,42.8384314 50.2266667,41.5129412 50.6878431,40.1952941 C51.2713725,41.8588235 51.7733333,43.4823529 52.1976471,45.0533333 C52.1545098,45.1576471 52.1121569,45.2611765 52.0690196,45.3654902 C52.0258824,45.4690196 51.9827451,45.572549 51.9396078,45.6752941 C50.5286275,46.4862745 49.0258824,47.2792157 47.4368627,48.0439216 M26.8729412,45.4643137 C25.905098,44.9003922 24.9701961,44.3215686 24.0729412,43.7317647 C24.4015686,42.5678431 24.7678431,41.3827451 25.172549,40.1827451 C25.7121569,41.7984314 26.3168627,43.427451 26.9827451,45.0541176 C26.945098,45.1905882 26.9090196,45.3278431 26.8729412,45.4643137 M28.4917647,40.1952941 C27.9184314,38.5584314 27.4141176,36.934902 26.9819608,35.3388235 C27.0243137,35.2345098 27.067451,35.1309804 27.1105882,35.0258824 C27.1537255,34.9215686 27.1968627,34.8188235 27.24,34.7145098 C28.6752941,33.8909804 30.1796078,33.0996078 31.7427451,32.3482353 C31.1458824,33.5890196 30.5654902,34.8823529 30.0086275,36.2266667 C29.452549,37.5709804 28.947451,38.8956863 28.4917647,40.1952941 M54.0070588,40.1827451 C53.4713725,38.5929412 52.8682353,36.9756863 52.1976471,35.3388235 C52.2352941,35.2023529 52.2713725,35.065098 52.307451,34.9286275 C53.2807843,35.4964706 54.2070588,36.0713725 55.0886275,36.6517647 C54.7639216,37.8196078 54.4031373,38.9968627 54.0070588,40.1827451 M55.9058824,33.4101961 C54.9952941,32.8384314 54.0462745,32.2760784 53.0619608,31.7247059 C53.4815686,29.6917647 53.7717647,27.7270588 53.9223529,25.8658824 C54.9176471,25.7835294 55.8792157,25.7411765 56.8,25.7411765 C56.892549,25.7411765 56.9858824,25.7419608 57.0776471,25.7427451 C56.9019608,28.16 56.5058824,30.7388235 55.9058824,33.4101961 M29.3921569,30.0078431 C29.9529412,28.88 30.5301961,27.7890196 31.1223529,26.7356863 C32.172549,26.9529412 33.24,27.2047059 34.3207843,27.4886275 C34.2517647,27.6070588 34.1835294,27.7247059 34.1145098,27.8439216 C32.4933333,28.5239216 30.9160784,29.2470588 29.3921569,30.0078431 M36.0533333,24.6964706 C34.9639216,24.3929412 33.8847059,24.1207843 32.8211765,23.8807843 C34.3019608,21.5317647 35.8478431,19.4258824 37.4156863,17.6117647 C38.1309804,18.3121569 38.8580392,19.0933333 39.5898039,19.9529412 C38.4133333,21.3364706 37.2235294,22.9223529 36.0533333,24.6964706 M54.0431373,22.7066667 C54,17.7827451 52.7654902,14.48 50.6117647,13.587451 C50.2039216,13.4188235 49.7537255,13.3333333 49.2729412,13.3333333 C47.265098,13.3333333 44.6086275,14.827451 41.7639216,17.6117647 C41.0423529,16.7780392 40.3168627,16.0054902 39.5898039,15.2988235 C42.9356863,12.0462745 46.2964706,10.1960784 49.2729412,10.1960784 C50.1678431,10.1960784 51.0211765,10.3615686 51.8117647,10.6894118 C55.2164706,12.0988235 57.1058824,16.3137255 57.1788235,22.6062745 C57.0533333,22.6047059 56.9270588,22.6039216 56.8,22.6039216 C55.907451,22.6039216 54.987451,22.6384314 54.0431373,22.7066667" id="Fill-138" fill="#E58648"></path>
            <path d="M57.6329412,57.5929412 C57.6470588,56.5921569 57.614902,55.545098 57.5364706,54.4564706 C62.4282353,54.4047059 65.7278431,53.1607843 66.612549,51.0258824 C67.4901961,48.9066667 66.025098,45.6839216 62.6117647,42.1890196 C63.4509804,41.4635294 64.2266667,40.7341176 64.9341176,40.0039216 C69.1568627,44.3584314 70.9639216,48.7184314 69.5105882,52.2266667 C68.107451,55.6133333 63.8980392,57.5121569 57.6329412,57.5929412 M60.2611765,40.0039216 C58.8737255,38.8243137 57.2831373,37.6329412 55.5027451,36.4603922 C55.8070588,35.3686275 56.08,34.2862745 56.32,33.2188235 C58.6878431,34.705098 60.7992157,36.252549 62.6117647,37.8196078 C61.9098039,38.5380392 61.1239216,39.2698039 60.2611765,40.0039216 M52.7215686,34.7372549 C52.6,34.6666667 52.4768627,34.5952941 52.3537255,34.5247059 C51.6698039,32.892549 50.9482353,31.3160784 50.1960784,29.8039216 C51.3286275,30.3654902 52.4227451,30.9427451 53.4760784,31.5333333 C53.2596078,32.5843137 53.0070588,33.6541176 52.7215686,34.7372549" id="Fill-139" fill="#E58648"></path>
            <path d="M55.3301961,37.0839216 C54.4486275,36.5035294 53.5223529,35.9286275 52.5490196,35.3607843 C52.8345098,34.2776471 53.0870588,33.2078431 53.3035294,32.1568627 C54.2878431,32.7082353 55.2368627,33.2705882 56.147451,33.8423529 C55.907451,34.9098039 55.6345098,35.9921569 55.3301961,37.0839216" id="Fill-140" fill="#E8A149"></path>
            <path d="M54.4454902,57.4839216 C52.025098,57.3082353 49.4462745,56.9121569 46.772549,56.3105882 C47.3490196,55.3952941 47.9168627,54.4423529 48.4713725,53.4556863 C50.5098039,53.8776471 52.4776471,54.1709804 54.3286275,54.3247059 C54.4180392,55.4376471 54.4556863,56.492549 54.4454902,57.4839216 M43.5403922,55.494902 C42.372549,55.1694118 41.1913725,54.8070588 40.0039216,54.4094118 C41.6180392,53.8698039 43.2454902,53.2643137 44.8752941,52.5968627 C45.0086275,52.6329412 45.1403922,52.6682353 45.2729412,52.7027451 C44.7019608,53.68 44.1239216,54.6101961 43.5403922,55.494902 M35.132549,52.5976471 C35.0329412,52.5568627 34.9333333,52.5152941 34.8345098,52.4745098 C34.732549,52.4321569 34.6305882,52.3898039 34.5286275,52.347451 C33.7168627,50.9364706 32.9223529,49.4329412 32.1568627,47.8431373 C33.414902,48.4478431 34.7098039,49.027451 36.0352941,49.5764706 C37.3537255,50.1223529 38.6807843,50.6282353 40.0039216,51.0894118 C38.3678431,51.6603922 36.7372549,52.1647059 35.132549,52.5976471" id="Fill-141" fill="#E58648"></path>
            <path d="M46.3694118,56.9411765 C45.305098,56.7011765 44.2266667,56.4290196 43.1372549,56.1254902 C43.7207843,55.2407843 44.2988235,54.3105882 44.8698039,53.3333333 C45.9505882,53.6180392 47.0188235,53.8690196 48.0682353,54.0862745 C47.5137255,55.0729412 46.9458824,56.0258824 46.3694118,56.9411765" id="Fill-142" fill="#E8A149"></path>
            <path d="M29.2128889,50.5223529 C28.0928889,49.9631373 27.0019085,49.3843137 25.9454379,48.7882353 C26.1587712,47.7537255 26.4073987,46.692549 26.6936732,45.6031373 C26.8160261,45.6737255 26.9383791,45.745098 27.0615163,45.8156863 C27.743085,47.4423529 28.463085,49.014902 29.2128889,50.5223529 M23.075634,47.0729412 C20.7619085,45.6086275 18.6591634,44.0658824 16.8254379,42.48 C17.0199477,42.2815686 17.2215163,42.0823529 17.4293595,41.8823529 C17.968183,41.3623529 18.5391634,40.8462745 19.1415163,40.334902 C20.5650457,41.5443137 22.1595555,42.7294118 23.8936732,43.8705882 C23.5877908,44.9560784 23.3148497,46.025098 23.075634,47.0729412 M14.5360261,40.3341176 C10.1375948,35.8329412 8.49367319,31.5168627 9.90386927,28.1121569 C11.3093595,24.7176471 15.5352418,22.8180392 21.8215163,22.745098 C21.8175948,23.0760784 21.8183791,23.4117647 21.8246536,23.7537255 C21.8372026,24.4478431 21.8701438,25.1568627 21.9226928,25.8815686 C17.0066144,25.9262745 13.6889673,27.1717647 12.8026928,29.3129412 C11.9101438,31.4666667 13.3728889,34.6752941 16.8254379,38.1890196 C16.275634,38.6635294 15.7509281,39.1427451 15.2513202,39.6243137 C15.0050457,39.8611765 14.7666144,40.0980392 14.5360261,40.3341176" id="Fill-143" fill="#E58648"></path>
            <path d="M26.3992157,48.8392157 C25.4117647,48.2815686 24.4533333,47.7090196 23.5294118,47.1239216 C23.7686275,46.0760784 24.0415686,45.0070588 24.347451,43.9215686 C25.2447059,44.5113725 26.1796078,45.0901961 27.147451,45.6541176 C26.8611765,46.7435294 26.612549,47.8047059 26.3992157,48.8392157" id="Fill-144" fill="#E8A149"></path>
            <path d="M47.399246,32.3858824 C46.1584617,31.7890196 44.8651284,31.2101961 43.5208146,30.6533333 C42.2023833,30.107451 40.8753244,29.6015686 39.5521872,29.1403922 C41.1882656,28.5694118 42.8188539,28.0658824 44.4243441,27.6329412 C44.5231676,27.6737255 44.6219911,27.7137255 44.721599,27.7552941 C44.8243441,27.7976471 44.9255205,27.84 45.0274813,27.8823529 C45.839246,29.2933333 46.6337558,30.7960784 47.399246,32.3858824 M34.6800303,27.6329412 C34.5474813,27.5968627 34.4149323,27.5615686 34.2831676,27.5270588 C34.8533637,26.5505882 35.4321872,25.6196078 36.0157166,24.734902 C37.1843441,25.0603922 38.3639519,25.4227451 39.5521872,25.8203922 C37.9380695,26.36 36.3090499,26.9654902 34.6800303,27.6329412 M31.0847362,26.7741176 C29.0439519,26.3513725 27.0729715,26.0580392 25.2204225,25.9043137 C25.1561088,25.1160784 25.1168931,24.3458824 25.1035597,23.5968627 C25.0980695,23.3082353 25.0965009,23.0243137 25.0996382,22.745098 C27.5231676,22.92 30.1059127,23.3160784 32.7835597,23.9192157 C32.2070892,24.8345098 31.639246,25.787451 31.0847362,26.7741176" id="Fill-145" fill="#E58648"></path>
            <path d="M34.5709804,27.9215686 C33.4901961,27.6376471 32.4227451,27.3858824 31.372549,27.1686275 C31.9270588,26.1819608 32.494902,25.2290196 33.0713725,24.3137255 C34.134902,24.5537255 35.2141176,24.8258824 36.3035294,25.1294118 C35.72,26.0141176 35.1411765,26.945098 34.5709804,27.9215686" id="Fill-146" fill="#E8A149"></path>
            <path d="M49.6854902,70.0086275 C46.7090196,70.0086275 43.347451,68.1584314 40.0015686,64.9058824 C40.7286275,64.1992157 41.4541176,63.4266667 42.1756863,62.5921569 C45.0203922,65.3764706 47.6768627,66.8713725 49.6854902,66.8713725 C50.1654902,66.8713725 50.6156863,66.7858824 51.0235294,66.6172549 C53.1490196,65.7364706 54.3921569,62.4047059 54.4431373,57.4964706 C55.3913725,57.5647059 56.3152941,57.6 57.2109804,57.6 C57.3521569,57.6 57.4917647,57.5992157 57.6305882,57.5968627 C57.5443137,63.6823529 55.7396078,68.0588235 52.2235294,69.5152941 C51.4329412,69.8423529 50.5796078,70.0086275 49.6854902,70.0086275 M37.827451,62.5921569 C36.2596078,60.7780392 34.7137255,58.6721569 33.2329412,56.3231373 C34.2972549,56.0831373 35.3756863,55.8109804 36.465098,55.507451 C37.6360784,57.2823529 38.8243137,58.867451 40.0015686,60.2509804 C39.2698039,61.1105882 38.5427451,61.892549 37.827451,62.5921569 M31.5341176,53.4682353 C30.9419608,52.414902 30.3647059,51.3239216 29.8039216,50.1960784 C31.3278431,50.9568627 32.9058824,51.6807843 34.5262745,52.36 C34.5952941,52.4792157 34.6635294,52.5976471 34.732549,52.7152941 C33.652549,53 32.5835294,53.2509804 31.5341176,53.4682353" id="Fill-147" fill="#E58648"></path>
            <path d="M39.8211765,65.0470588 C39.0941176,64.3403922 38.3686275,63.5678431 37.6470588,62.7333333 C38.3623529,62.0337255 39.0894118,61.2517647 39.8211765,60.3921569 C40.5529412,61.2517647 41.28,62.0337255 41.9952941,62.7333333 C41.2737255,63.5678431 40.5482353,64.3403922 39.8211765,65.0470588" id="Fill-148" fill="#E8A149"></path>
            <path d="M57.2054902,54.4596078 C56.2831373,54.4596078 55.3184314,54.4172549 54.3207843,54.3341176 C54.174902,52.5231373 53.8933333,50.56 53.465098,48.4784314 C54.4603922,47.9207843 55.4188235,47.3521569 56.3388235,46.7741176 C56.9592157,49.4933333 57.3552941,52.0737255 57.5286275,54.4572549 C57.4211765,54.4588235 57.3137255,54.4596078 57.2054902,54.4596078 M52.7129412,45.2721569 C52.6768627,45.1356863 52.6407843,45 52.6039216,44.8627451 C53.2698039,43.2360784 53.8737255,41.6078431 54.4133333,39.9921569 C54.8180392,41.1913725 55.1843137,42.3741176 55.5121569,43.5372549 C54.625098,44.1215686 53.6917647,44.7011765 52.7129412,45.2721569 M51.0941176,40.0047059 C50.6392157,38.705098 50.1333333,37.3803922 49.5772549,36.0360784 C49.0203922,34.6917647 48.44,33.3976471 47.8431373,32.1568627 C49.4321569,32.9207843 50.934902,33.7145098 52.3458824,34.5254902 C52.3890196,34.6282353 52.4321569,34.7317647 52.4752941,34.8352941 C52.5184314,34.9403922 52.5615686,35.0439216 52.6039216,35.1482353 C52.1717647,36.745098 51.667451,38.3678431 51.0941176,40.0047059" id="Fill-149" fill="#E58648"></path>
            <path d="M52.4901961,45.0086275 C52.0658824,43.4376471 51.5639216,41.8141176 50.9803922,40.1505882 C51.5537255,38.5137255 52.0580392,36.8909804 52.4901961,35.2941176 C53.1607843,36.9309804 53.7639216,38.5482353 54.2996078,40.1380392 C53.76,41.7537255 53.1560784,43.3819608 52.4901961,45.0086275" id="Fill-150" fill="#E8A149"></path>
            <path d="M31.6015686,48.1843137 C30.0384314,47.4329412 28.5341176,46.6415686 27.0996078,45.8180392 C27.0556863,45.7137255 27.012549,45.6109804 26.9694118,45.5066667 C26.9262745,45.4023529 26.8839216,45.2988235 26.8415686,45.1952941 C27.2658824,43.6235294 27.7670588,42 28.3505882,40.3364706 C28.812549,41.6541176 29.3184314,42.9796078 29.867451,44.3058824 C30.4243137,45.6501961 31.0047059,46.9435294 31.6015686,48.1843137 M25.0313725,40.3239216 C24.6352941,39.1372549 24.2737255,37.9576471 23.9490196,36.7898039 C24.8407843,36.2039216 25.7694118,35.6290196 26.7309804,35.0690196 C26.7670588,35.2054902 26.8031373,35.3427451 26.8407843,35.48 C26.1701961,37.1160784 25.5670588,38.7341176 25.0313725,40.3239216 M23.1403922,33.5819608 C22.5356863,30.8996078 22.1372549,28.3105882 21.9607843,25.8839216 C22.0533333,25.8831373 22.1458824,25.8823529 22.2384314,25.8823529 C23.1592157,25.8823529 24.1207843,25.9247059 25.1168627,26.0070588 C25.2682353,27.8745098 25.5584314,29.8454902 25.9803922,31.8854902 C25.0031373,32.4368627 24.0556863,33.0031373 23.1403922,33.5819608" id="Fill-151" fill="#E58648"></path>
            <path d="M26.9082353,45.0094118 C26.2423529,43.3827451 25.6376471,41.7537255 25.0980392,40.1380392 C25.6337255,38.5482353 26.2368627,36.9301961 26.907451,35.2941176 C27.3396078,36.8901961 27.8439216,38.5137255 28.4172549,40.1505882 C27.8337255,41.8141176 27.332549,43.4376471 26.9082353,45.0094118" id="Fill-152" fill="#E8A149"></path>
            <path d="M49.7419608,29.9952941 C48.2352941,29.2486275 46.6603922,28.5286275 45.025098,27.8439216 C44.9560784,27.7247059 44.8878431,27.6070588 44.8188235,27.4886275 C45.8996078,27.2047059 46.9678431,26.9529412 48.0172549,26.7356863 C48.6070588,27.785098 49.1827451,28.8721569 49.7419608,29.9952941 M43.0862745,24.6964706 C41.9160784,22.9223529 40.7270588,21.3364706 39.5498039,19.9529412 C40.2815686,19.0933333 41.0086275,18.3121569 41.7239216,17.6117647 C43.2917647,19.4258824 44.8376471,21.5317647 46.3184314,23.8807843 C45.254902,24.1207843 44.1756863,24.3929412 43.0862745,24.6964706 M25.0972549,22.7066667 C24.1521569,22.6384314 23.2321569,22.6039216 22.3396078,22.6039216 C22.212549,22.6039216 22.0862745,22.6047059 21.9607843,22.6062745 C22.0345098,16.3137255 23.9239216,12.0988235 27.3278431,10.6894118 C28.1184314,10.3615686 28.9717647,10.1960784 29.8666667,10.1960784 C32.8431373,10.1960784 36.2039216,12.0462745 39.5498039,15.2988235 C38.8227451,16.0054902 38.0972549,16.7780392 37.3756863,17.6117647 C34.5309804,14.827451 31.8752941,13.3333333 29.8666667,13.3333333 C29.3858824,13.3333333 28.9364706,13.4188235 28.5286275,13.587451 C26.3741176,14.48 25.1396078,17.7827451 25.0972549,22.7066667" id="Fill-153" fill="#E58648"></path>
            <path d="M39.8211765,20.3403922 C39.0894118,19.4807843 38.3623529,18.6996078 37.6470588,17.9992157 C38.3686275,17.1654902 39.0941176,16.3929412 39.8211765,15.6862745 C40.5482353,16.3929412 41.2737255,17.1654902 41.9952941,17.9992157 C41.28,18.6996078 40.5529412,19.4807843 39.8211765,20.3403922" id="Fill-154" fill="#E8A149"></path>
            <path d="M56.7616127,57.9286275 C55.8659264,57.9286275 54.9420049,57.8933333 53.9937696,57.825098 C54.0039656,56.8337255 53.9663186,55.7788235 53.8769068,54.6658824 C54.8745539,54.7490196 55.8392598,54.7913725 56.7616127,54.7913725 C56.869848,54.7913725 56.977299,54.7905882 57.08475,54.7890196 C57.1631813,55.8776471 57.1953382,56.9247059 57.1812205,57.9254902 C57.042397,57.9278431 56.9027892,57.9286275 56.7616127,57.9286275 M34.0769068,52.6886275 C32.4565147,52.0094118 30.8784754,51.2854902 29.3545539,50.5247059 C28.60475,49.0172549 27.88475,47.4447059 27.2031813,45.8180392 C28.6376911,46.6415686 30.1420049,47.4329412 31.7051421,48.1843137 C32.4706323,49.7741176 33.2651421,51.2776471 34.0769068,52.6886275 M51.9020049,34.8572549 C50.4910245,34.0462745 48.9882794,33.252549 47.3992598,32.4886275 C46.6337696,30.8988235 45.8392598,29.3960784 45.027495,27.985098 C46.6627892,28.6698039 48.2376911,29.3898039 49.7443578,30.1364706 C50.4965147,31.6486275 51.2180833,33.225098 51.9020049,34.8572549 M25.2204362,26.0070588 C24.2243578,25.9247059 23.2627892,25.8823529 22.3420049,25.8823529 C22.2494558,25.8823529 22.1569068,25.8831373 22.0643578,25.8839216 C22.0118088,25.1592157 21.9788676,24.4501961 21.9663186,23.7560784 C21.9600441,23.4141176 21.9592598,23.0784314 21.9631813,22.747451 C22.0886715,22.7458824 22.214946,22.745098 22.3420049,22.745098 C23.2345539,22.745098 24.1545539,22.7796078 25.0996519,22.8478431 C25.0965147,23.1270588 25.0980833,23.4109804 25.1035735,23.6996078 C25.1169068,24.4486275 25.1561225,25.2188235 25.2204362,26.0070588" id="Fill-155" fill="#E8A149"></path>
            <path d="M21.7815163,57.9231373 C15.5172026,57.8423529 11.3070065,55.9435294 9.90386927,52.5568627 C8.49367319,49.1521569 10.1375948,44.8360784 14.5360261,40.3341176 C14.7666144,40.5709804 15.0050457,40.8078431 15.2513202,41.0447059 C15.7509281,41.5262745 16.275634,42.0054902 16.8254379,42.48 C13.3728889,45.9937255 11.9101438,49.2015686 12.8026928,51.3560784 C13.6866144,53.4909804 16.9870065,54.734902 21.8787712,54.7866667 C21.8003399,55.8752941 21.7673987,56.9223529 21.7815163,57.9231373 M24.9689673,57.8227451 C24.9587712,56.8313725 24.9972026,55.7764706 25.0866144,54.6635294 C26.9368104,54.5098039 28.9054379,54.2164706 30.943085,53.7945098 C31.4975948,54.7811765 32.0654379,55.7341176 32.6419085,56.6494118 C29.9689673,57.2509804 27.3893595,57.6470588 24.9689673,57.8227451 M35.8740653,55.8337255 C35.2905359,54.9490196 34.7124967,54.0188235 34.1415163,53.0415686 C34.2740653,53.0070588 34.4058301,52.9717647 34.5391634,52.9364706 C36.168183,53.6039216 37.795634,54.2086275 39.4105359,54.7482353 C38.223085,55.1458824 37.0419085,55.5082353 35.8740653,55.8337255 M44.2819085,52.9356863 C42.6772026,52.5035294 41.0466144,51.9992157 39.4105359,51.4282353 C40.7336732,50.9670588 42.0599477,50.4611765 43.3791634,49.9152941 C44.7226928,49.3584314 46.0168104,48.7788235 47.2575948,48.1827451 C46.4921046,49.772549 45.6975948,51.2752941 44.8858301,52.6862745 C44.7838693,52.7286275 44.6826928,52.7709804 44.5799477,52.8133333 C44.4803399,52.8541176 44.380732,52.8956863 44.2819085,52.9356863 M49.6026928,50.534902 C50.3548497,49.0227451 51.0764183,47.4462745 51.7603399,45.8141176 C51.8834771,45.7435294 52.0058301,45.6729412 52.1273987,45.6015686 C52.4160261,46.6980392 52.6662222,47.7670588 52.8795555,48.8078431 C51.8270065,49.3968627 50.7344575,49.9733333 49.6026928,50.534902 M55.753281,47.1035294 C55.5117124,46.0447059 55.235634,44.9647059 54.9266144,43.8666667 C56.6999477,42.6980392 58.2850457,41.5105882 59.6677908,40.3341176 C60.5305359,41.0690196 61.3164183,41.8007843 62.0183791,42.5192157 C60.2128889,44.08 58.1101438,45.6219608 55.753281,47.1035294 M19.1415163,40.334902 C18.5391634,39.8227451 17.968183,39.3066667 17.4293595,38.7866667 C17.2215163,38.5866667 17.0199477,38.387451 16.8254379,38.1890196 C18.6654379,36.5976471 20.7783791,35.0486275 23.1023006,33.5796078 C23.3399477,34.6360784 23.6097516,35.7066667 23.9109281,36.787451 C22.1697516,37.9317647 20.5689673,39.1207843 19.1415163,40.334902 M64.340732,40.3341176 C63.633281,39.6047059 62.8575948,38.8752941 62.0183791,38.1498039 C65.4317124,34.654902 66.8968104,31.4321569 66.0191634,29.3129412 C65.1321046,27.1717647 61.8152418,25.9262745 56.8983791,25.8815686 C56.9509281,25.1568627 56.9838693,24.4478431 56.9964183,23.7537255 C57.0026928,23.4117647 57.0034771,23.0760784 56.9995555,22.745098 C63.2858301,22.8180392 67.5117124,24.7176471 68.9172026,28.1121569 C70.3705359,31.6203922 68.5634771,35.9803922 64.340732,40.3341176 M26.6928889,35.0666667 C26.4089673,33.9905882 26.1587712,32.9278431 25.9423006,31.8831373 C27.0003399,31.2862745 28.0921046,30.7058824 29.2128889,30.1466667 C28.463085,31.6541176 27.743085,33.2266667 27.060732,34.8533333 C26.9375948,34.9247059 26.8152418,34.9952941 26.6928889,35.0666667 M31.5634771,32.4870588 C32.3289673,30.8972549 33.1234771,29.3937255 33.9352418,27.9827451 C34.0372026,27.9403922 34.1391634,27.8980392 34.2411242,27.8556863 C34.340732,27.8141176 34.4395555,27.7741176 34.5383791,27.7333333 C36.1438693,28.1662745 37.7744575,28.6698039 39.4105359,29.2407843 C38.0873987,29.7019608 36.7603399,30.2078431 35.4419085,30.7537255 C34.1164183,31.3027451 32.8215163,31.8823529 31.5634771,32.4870588 M44.2826928,27.7333333 C42.6536732,27.0658824 41.0246536,26.4603922 39.4105359,25.9207843 C40.5987712,25.5231373 41.7791634,25.1607843 42.9470065,24.8352941 C43.5305359,25.72 44.1093595,26.6509804 44.6795555,27.627451 C44.5477908,27.6619608 44.4152418,27.6972549 44.2826928,27.7333333 M47.8779869,26.8745098 C47.3234771,25.8878431 46.755634,24.934902 46.1791634,24.0196078 C48.8568104,23.4164706 51.4395555,23.0203922 53.8638693,22.8454902 C53.8662222,23.1247059 53.8646536,23.4086275 53.8599477,23.6972549 C53.8458301,24.4462745 53.8066144,25.2164706 53.743085,26.0047059 C51.8897516,26.1584314 49.9195555,26.4517647 47.8779869,26.8745098" id="Fill-156" fill="#E58648"></path>
            <path d="M22.3835739,57.9286275 C22.2423975,57.9286275 22.1027896,57.9278431 21.9639661,57.9254902 C21.9498485,56.9247059 21.9827896,55.8776471 22.061221,54.7890196 C22.1678877,54.7905882 22.2753386,54.7913725 22.3835739,54.7913725 C23.3067112,54.7913725 24.2706328,54.7490196 25.2690641,54.6658824 C25.1796524,55.7788235 25.141221,56.8337255 25.1514171,57.825098 C24.2031818,57.8933333 23.2792602,57.9286275 22.3835739,57.9286275 M45.0682798,52.6886275 C45.8800445,51.2776471 46.6745543,49.774902 47.4400445,48.185098 C49.0290641,47.4203922 50.5318092,46.627451 51.9427896,45.8164706 C51.2588681,47.4486275 50.5372994,49.025098 49.7851426,50.5372549 C48.2784759,51.2839216 46.7035739,52.0031373 45.0682798,52.6886275 M27.2431818,34.8556863 C27.9255347,33.2290196 28.6455347,31.6564706 29.3953386,30.1490196 C30.9192602,29.3882353 32.4965151,28.665098 34.1176916,27.985098 C33.3059269,29.3960784 32.5114171,30.8996078 31.7459269,32.4894118 C30.1827896,33.2407843 28.6784759,34.0321569 27.2431818,34.8556863 M53.9255347,26.0070588 C53.9890641,25.2188235 54.0282798,24.4486275 54.0423975,23.6996078 C54.0471034,23.4109804 54.048672,23.1270588 54.046319,22.8478431 C54.9906328,22.7796078 55.9106328,22.745098 56.8031818,22.745098 C56.9302406,22.745098 57.0565151,22.7458824 57.1820053,22.747451 C57.1859269,23.0784314 57.1851426,23.4141176 57.1788681,23.7560784 C57.166319,24.4501961 57.1333779,25.1592157 57.0808288,25.8839216 C56.9890641,25.8831373 56.8957308,25.8823529 56.8031818,25.8823529 C55.8823975,25.8823529 54.9208288,25.9247059 53.9255347,26.0070588" id="Fill-157" fill="#E8A149"></path>
            <path d="M61.9584314,42.8007843 C61.2564706,42.0823529 60.4705882,41.3505882 59.6078431,40.6156863 C60.4705882,39.8815686 61.2564706,39.1498039 61.9584314,38.4313725 C62.7976471,39.1568627 63.5733333,39.8862745 64.2807843,40.6156863 C63.5733333,41.3458824 62.7976471,42.0752941 61.9584314,42.8007843" id="Fill-158" fill="#E8A149"></path>
            <path d="M39.3811765,55.0847059 C37.7662745,54.545098 36.1388235,53.9403922 34.5098039,53.2729412 C36.1145098,52.84 37.745098,52.3356863 39.3811765,51.7647059 C41.0172549,52.3356863 42.6478431,52.84 44.252549,53.2721569 C42.6227451,53.9396078 40.9952941,54.545098 39.3811765,55.0847059" id="Fill-159" fill="#E8A149"></path>
            <path d="M17.1913725,42.7223529 C16.6415686,42.2478431 16.1168627,41.7686275 15.6172549,41.2870588 C15.3709804,41.0501961 15.132549,40.8133333 14.9019608,40.5764706 C15.132549,40.3403922 15.3709804,40.1035294 15.6172549,39.8666667 C16.1168627,39.385098 16.6415686,38.9058824 17.1913725,38.4313725 C17.3858824,38.6298039 17.587451,38.8290196 17.7952941,39.0290196 C18.3341176,39.5490196 18.905098,40.065098 19.507451,40.5772549 C18.905098,41.0886275 18.3341176,41.6047059 17.7952941,42.1247059 C17.587451,42.3247059 17.3858824,42.5239216 17.1913725,42.7223529" id="Fill-160" fill="#E8A149"></path>
            <path d="M39.3819608,29.2023529 C37.7458824,28.6313725 36.1152941,28.1278431 34.5098039,27.694902 C36.1388235,27.027451 37.7678431,26.4219608 39.3819608,25.8823529 C40.9960784,26.4219608 42.625098,27.027451 44.2541176,27.694902 C42.6486275,28.1278431 41.0180392,28.6313725 39.3819608,29.2023529" id="Fill-161" fill="#E8A149"></path>
            <path d="M33.0713725,56.9411765 C32.494902,56.0258824 31.9270588,55.0729412 31.372549,54.0862745 C32.4219608,53.8690196 33.4909804,53.6180392 34.5709804,53.3333333 C35.1419608,54.3105882 35.72,55.2407843 36.3035294,56.1254902 C35.2141176,56.4290196 34.1356863,56.7011765 33.0713725,56.9411765" id="Fill-162" fill="#E8A149"></path>
            <path d="M53.3011765,48.8627451 C53.0878431,47.8219608 52.8376471,46.7529412 52.5490196,45.6564706 C53.5278431,45.0854902 54.4611765,44.5058824 55.3482353,43.9215686 C55.6572549,45.0196078 55.9333333,46.0996078 56.174902,47.1584314 C55.254902,47.7364706 54.2964706,48.305098 53.3011765,48.8627451" id="Fill-163" fill="#E8A149"></path>
            <path d="M24.3380392,37.0611765 C24.0368627,35.9803922 23.7670588,34.9098039 23.5294118,33.8533333 C24.4447059,33.2745098 25.3921569,32.7082353 26.3694118,32.1568627 C26.5858824,33.2015686 26.8360784,34.2643137 27.12,35.3403922 C26.1584314,35.9003922 25.2298039,36.4752941 24.3380392,37.0611765" id="Fill-164" fill="#E8A149"></path>
            <path d="M44.8698039,27.9215686 C44.2996078,26.945098 43.7207843,26.0141176 43.1372549,25.1294118 C44.2266667,24.8258824 45.3058824,24.5537255 46.3694118,24.3137255 C46.9458824,25.2290196 47.5137255,26.1819608 48.0682353,27.1686275 C47.0188235,27.3858824 45.9505882,27.6376471 44.8698039,27.9215686" id="Fill-165" fill="#E8A149"></path>
            <path d="M39.6078431,38.894902 C38.9584314,38.894902 38.4313725,38.3678431 38.4313725,37.7184314 L38.4313725,32.5490196 C38.4313725,31.8996078 38.9584314,31.372549 39.6078431,31.372549 C40.2580392,31.372549 40.7843137,31.8996078 40.7843137,32.5490196 L40.7843137,37.7184314 C40.7843137,38.3678431 40.2580392,38.894902 39.6078431,38.894902" id="Fill-166" fill="#EFCC46"></path>
            <path d="M39.8172549,46.8050718 C36.0258824,46.8050718 32.9411765,43.7203659 32.9411765,39.9289934 C32.9411765,37.3901699 34.3333333,35.0670326 36.5741176,33.8662483 C37.1482353,33.558013 37.8596078,33.7752679 38.1662745,34.3470326 C38.4729412,34.9195816 38.2580392,35.6325228 37.6854902,35.9399738 C36.2101961,36.730562 35.2941176,38.2584051 35.2941176,39.9289934 C35.2941176,42.423111 37.3231373,44.4521306 39.8172549,44.4521306 C42.3113725,44.4521306 44.3403922,42.423111 44.3403922,39.9289934 C44.3403922,38.2584051 43.4243137,36.730562 41.9498039,35.9399738 C41.3772549,35.6325228 41.1615686,34.9195816 41.4682353,34.3470326 C41.7741176,33.7744836 42.4870588,33.5572287 43.0611765,33.8662483 C45.3019608,35.0670326 46.6933333,37.3901699 46.6933333,39.9289934 C46.6933333,43.7203659 43.6086275,46.8050718 39.8172549,46.8050718" id="Fill-167" fill="#EFCC46"></path>
        </g>
    </g>
</svg>