<?xml version="1.0" encoding="UTF-8"?>
<svg width="80px" height="80px" viewBox="0 0 80 80" version="1.1" xmlns="http://www.w3.org/2000/svg" xmlns:xlink="http://www.w3.org/1999/xlink">
    <title>Icons/GV gain/Self Awareness</title>
    <g id="Icons/GV-gain/Self-Awareness" stroke="none" stroke-width="1" fill="none" fill-rule="evenodd">
        <g id="Self-aware">
            <path d="M79.5803922,39.9639216 C79.5803922,61.9011765 61.7960784,79.6854902 39.8580392,79.6854902 C17.92,79.6854902 0.135686275,61.9011765 0.135686275,39.9639216 C0.135686275,18.0258824 17.92,0.241568627 39.8580392,0.241568627 C61.7960784,0.241568627 79.5803922,18.0258824 79.5803922,39.9639216" id="Fill-1" fill="#F7C34C"></path>
            <path d="M36.2384314,9.41369412 C36.4712314,9.36249412 36.7048314,9.31529412 36.9408314,9.27529412 C36.7048314,9.31529412 36.4712314,9.36249412 36.2384314,9.41369412" id="Fill-2" fill="#FFFFFE"></path>
            <path d="M37.1035294,9.2505098 C37.3283294,9.2145098 37.5547294,9.1809098 37.7827294,9.1545098 C37.5547294,9.1809098 37.3291294,9.2145098 37.1035294,9.2505098" id="Fill-3" fill="#FFFFFE"></path>
            <path d="M21.6894118,30.0854902 L21.6894118,30.1003922 C21.6894118,29.572549 21.7102118,29.0509804 21.7438118,28.532549 C21.7110118,29.0454902 21.6894118,29.5623529 21.6894118,30.0854902" id="Fill-4" fill="#FFFFFE"></path>
            <path d="M34.5458824,9.88712157 C34.8018824,9.79912157 35.0610824,9.71832157 35.3218824,9.64392157 C35.0610824,9.71832157 34.8018824,9.79992157 34.5458824,9.88712157" id="Fill-5" fill="#FFFFFE"></path>
            <path d="M35.3843137,9.62641569 C35.6275137,9.55841569 35.8731137,9.49521569 36.1203137,9.43921569 C35.8731137,9.49521569 35.6283137,9.55841569 35.3843137,9.62641569" id="Fill-6" fill="#FFFFFE"></path>
            <path d="M22.1046745,34.5811765 C22.0374745,34.2243137 21.9774745,33.865098 21.9262745,33.5027451 C21.9774745,33.865098 22.0374745,34.2243137 22.1046745,34.5811765" id="Fill-11" fill="#FFFFFE"></path>
            <path d="M21.7341804,31.4988235 C21.7093804,31.0556863 21.6917804,30.6101961 21.6909804,30.16 C21.6917804,30.6101961 21.7085804,31.0556863 21.7341804,31.4988235" id="Fill-12" fill="#FFFFFE"></path>
            <path d="M23.3061804,38.8415686 C23.2037804,38.5772972 23.1045804,38.3114289 23.0109804,38.0415686 C23.1045804,38.3114289 23.2037804,38.5772972 23.3061804,38.8415686" id="Fill-13" fill="#FFFFFE"></path>
            <path d="M24.4611451,41.3507765 C24.3667451,41.1755765 24.2731451,40.9995765 24.1827451,40.8211765 C24.2731451,40.9995765 24.3667451,41.1755765 24.4611451,41.3507765" id="Fill-14" fill="#FFFFFE"></path>
            <path d="M22.8432157,37.5231373 C22.7424157,37.2133333 22.6480157,36.9011765 22.5592157,36.585098 C22.6480157,36.9011765 22.7424157,37.2133333 22.8432157,37.5231373" id="Fill-15" fill="#FFFFFE"></path>
            <path d="M23.9132549,40.2673882 C23.7964549,40.0185882 23.6852549,39.7657882 23.5772549,39.5105882 C23.6852549,39.7649882 23.7964549,40.0185882 23.9132549,40.2673882" id="Fill-16" fill="#FFFFFE"></path>
            <path d="M22.4224314,36.0423529 C22.3416314,35.7254902 22.2664314,35.4054902 22.1984314,35.0823529 C22.2664314,35.4054902 22.3416314,35.7254902 22.4224314,36.0423529" id="Fill-17" fill="#FFFFFE"></path>
            <path d="M21.8767686,33.1027451 C21.8287686,32.7176471 21.7911686,32.3286275 21.7615686,31.9372549 C21.7911686,32.3286275 21.8287686,32.7176471 21.8767686,33.1027451" id="Fill-18" fill="#FFFFFE"></path>
            <path d="M25.0360784,17.8156863 C23.2078431,20.8172549 22.0337255,24.4101961 21.7568627,28.3066667 C22.0376471,24.4141176 23.214902,20.8196078 25.0462745,17.8180392 L25.0360784,17.8156863" id="Fill-20" fill="#FFFFFE"></path>
            <path d="M34.5333333,9.88705882 C34.0109804,10.0686588 33.4988235,10.2790588 32.9976471,10.5158588 L32.9976471,10.5174588 C33.4988235,10.2798588 34.0109804,10.0694588 34.5333333,9.88705882" id="Fill-23" fill="#FFFFFE"></path>
            <path d="M46.3317647,10.68 L46.332549,10.6721569 C44.2243137,9.63215686 41.9113725,9.05568627 39.4839216,9.05568627 C38.9686275,9.05568627 38.4596078,9.08705882 37.9552941,9.13803922 C38.4596078,9.08705882 38.9686275,9.0572549 39.4839216,9.0572549 C41.9090196,9.0572549 44.2227451,9.63529412 46.3317647,10.68" id="Fill-24" fill="#FFFFFE"></path>
            <path d="M39.4839216,69.7788235 C38.1105882,69.7788235 36.9968627,68.6658824 36.9968627,67.292549 C36.9968627,65.9192157 38.1105882,64.8054902 39.4839216,64.8054902 C40.8572549,64.8054902 41.9701961,65.9192157 41.9701961,67.292549 C41.9701961,68.6658824 40.8572549,69.7788235 39.4839216,69.7788235 Z M39.4839216,51.1152941 C33.16,51.1152941 27.6117647,47.2141176 24.4556863,41.3403922 C24.5380392,41.4941176 34.8909804,50.5027451 36.0901961,50.7772549 C36.574902,51.5019608 36.894902,52.3882353 36.894902,53.1435294 L36.894902,61.3043137 C36.894902,62.1905882 36.532549,63.3458824 36.014902,64.2501961 C35.7466667,64.5380392 35.5145098,64.8588235 35.3239216,65.2062745 C35.212549,65.3607843 34.9882353,65.7333333 34.8533333,66.3678431 C34.2321569,69.2933333 36.3937255,72.1529412 39.3835294,72.214902 C42.0470588,72.2698039 44.2235294,70.1270588 44.2235294,67.4760784 C44.2235294,66.1443137 43.8086275,65.4360784 43.6431373,65.2062745 C43.452549,64.8588235 43.2203922,64.5380392 42.9521569,64.2501961 C42.4352941,63.3458824 42.0729412,62.1905882 42.0729412,61.3043137 L42.0729412,53.1435294 C42.0729412,52.3882353 42.3921569,51.5019608 42.8768627,50.7772549 C43.9466667,50.5317647 54.0784314,42.1137255 54.1498039,41.9921569 C50.9411765,47.5011765 45.5709804,51.1152941 39.4839216,51.1152941 L39.4839216,51.1152941 Z" id="Fill-28" fill="#37666E"></path>
            <path d="M21.7621333,31.9460235 C21.7517333,31.7972235 21.7421333,31.6484235 21.7333333,31.4988235 C21.7421333,31.6484235 21.7517333,31.7972235 21.7621333,31.9460235" id="Fill-29" fill="#37666E"></path>
            <path d="M24.1882667,40.832549 C24.0922667,40.640549 23.9978667,40.447749 23.9066667,40.252549 C23.9978667,40.447749 24.0922667,40.640549 24.1882667,40.832549" id="Fill-30" fill="#37666E"></path>
            <path d="M21.7427451,28.5370667 C21.7475451,28.4602667 21.7515451,28.3834667 21.7571451,28.3066667 C21.7515451,28.3834667 21.7475451,28.4602667 21.7427451,28.5370667" id="Fill-31" fill="#37666E"></path>
            <polyline id="Fill-32" fill="#37666E" points="21.6894118 30.1099922 21.6910118 30.1611922 21.6894118 30.1003922 21.6894118 30.1099922"></polyline>
            <path d="M23.5827922,39.524251 C23.4851922,39.294651 23.3915922,39.061851 23.3003922,38.827451 C23.3907922,39.062651 23.4851922,39.293851 23.5827922,39.524251" id="Fill-33" fill="#37666E"></path>
            <path d="M22.5620392,36.5959529 C22.5116392,36.4127529 22.4644392,36.2279529 22.4180392,36.0423529 C22.4644392,36.2279529 22.5116392,36.4127529 22.5620392,36.5959529" id="Fill-34" fill="#37666E"></path>
            <path d="M23.0144471,38.0519373 C22.9536471,37.8767373 22.8944471,37.6999373 22.8376471,37.5231373 C22.8944471,37.7007373 22.9536471,37.8759373 23.0144471,38.0519373" id="Fill-35" fill="#37666E"></path>
            <path d="M22.2003765,35.0923765 C22.1659765,34.9227765 22.1323765,34.7523765 22.1011765,34.5811765 C22.1323765,34.7523765 22.1659765,34.9227765 22.2003765,35.0923765" id="Fill-36" fill="#37666E"></path>
            <path d="M21.9273098,33.5107451 C21.9089098,33.3747451 21.8905098,33.2395451 21.8745098,33.1027451 C21.8905098,33.2395451 21.9089098,33.3747451 21.9273098,33.5107451" id="Fill-37" fill="#37666E"></path>
            <polyline id="Fill-38" fill="#37666E" points="35.3066667 9.6443451 35.3858667 9.6227451 35.3066667 9.6443451"></polyline>
            <polyline id="Fill-48" fill="#37666E" points="34.5333333 9.88715294 34.5461333 9.88235294 34.5333333 9.88715294"></polyline>
            <polyline id="Fill-49" fill="#37666E" points="36.1058824 9.43978039 36.2410824 9.41098039 36.1058824 9.43978039"></polyline>
            <polyline id="Fill-50" fill="#37666E" points="37.7694118 9.15483922 37.9590118 9.13803922 37.7694118 9.15483922"></polyline>
            <polyline id="Fill-51" fill="#37666E" points="36.9270588 9.27582745 37.1070588 9.24862745 36.9270588 9.27582745"></polyline>
            <path d="M39.4839216,11.6823529 C47.8368627,11.6823529 54.6329412,19.9403922 54.6329412,30.0901961 C54.6329412,40.24 47.8368627,48.4972549 39.4839216,48.4972549 C31.1301961,48.4972549 24.334902,40.24 24.334902,30.0901961 C24.334902,19.9403922 31.1301961,11.6823529 39.4839216,11.6823529 Z M39.4839216,51.1152941 C45.5709804,51.1152941 50.9411765,47.5011765 54.1498039,41.9921569 C54.2447059,41.8290196 54.3364706,41.6627451 54.427451,41.4964706 C54.585098,41.2078431 54.7380392,40.9137255 54.8839216,40.614902 C54.9960784,40.387451 55.1058824,40.1592157 55.2101961,39.9262745 C55.2933333,39.7403922 55.3741176,39.5537255 55.4533333,39.3647059 C55.5866667,39.0439216 55.7145098,38.72 55.8345098,38.3898039 C55.9019608,38.2047059 55.9647059,38.0156863 56.027451,37.827451 C56.1231373,37.5427451 56.2141176,37.2556863 56.2988235,36.9647059 C56.3482353,36.7976471 56.3976471,36.6305882 56.4431373,36.4611765 C56.5505882,36.0603922 56.6494118,35.654902 56.7364706,35.2447059 C56.7694118,35.0917647 56.7976471,34.9364706 56.8266667,34.7819608 C56.892549,34.4415686 56.9513725,34.0980392 57.0031373,33.7513725 C57.0227451,33.6180392 57.0454902,33.4862745 57.0635294,33.3521569 C57.1223529,32.9035294 57.1670588,32.4494118 57.2015686,31.9921569 C57.212549,31.854902 57.2203922,31.7168627 57.2282353,31.5796078 C57.2564706,31.107451 57.2760784,30.6329412 57.2768627,30.1529412 L57.2776471,30.1003922 C57.2776471,29.6031373 57.2596078,29.1105882 57.2305882,28.6227451 C57.2258824,28.5388235 57.2203922,28.4564706 57.2141176,28.3733333 C56.9592157,24.6964706 55.905098,21.2831373 54.2541176,18.3819608 L54.265098,18.3756863 C52.3301961,14.9701961 49.5741176,12.2713725 46.332549,10.6721569 L46.3317647,10.68 C44.2227451,9.63529412 41.9090196,9.0572549 39.4839216,9.0572549 C38.9686275,9.0572549 38.4596078,9.08705882 37.9552941,9.13803922 L37.7694118,9.1545098 C37.5458824,9.18039216 37.3239216,9.21333333 37.1035294,9.24862745 L36.9270588,9.27529412 C36.6956863,9.3145098 36.4666667,9.36078431 36.2384314,9.41098039 L36.1058824,9.43921569 C35.8635294,9.49411765 35.6227451,9.55607843 35.3843137,9.6227451 L35.3066667,9.64392157 C35.0509804,9.71686275 34.7968627,9.79607843 34.5458824,9.88235294 L34.5333333,9.88705882 C34.0109804,10.0658824 33.4988235,10.2721569 32.9976471,10.505098 L32.9976471,10.5035294 C29.7819608,11.9921569 27.0235294,14.5529412 25.0360784,17.8156863 L25.0462745,17.8180392 C23.214902,20.8196078 22.0376471,24.4141176 21.7568627,28.3066667 C21.7513725,28.3819608 21.747451,28.4572549 21.7427451,28.532549 C21.7098039,29.0509804 21.6894118,29.572549 21.6894118,30.1003922 L21.6909804,30.16 C21.6917647,30.6101961 21.7090196,31.0556863 21.7333333,31.4988235 C21.7419608,31.6454902 21.7513725,31.7913725 21.7615686,31.9372549 C21.7905882,32.3286275 21.827451,32.7176471 21.8745098,33.1027451 C21.8901961,33.2368627 21.9082353,33.3694118 21.9262745,33.5027451 C21.9764706,33.865098 22.0352941,34.2243137 22.1011765,34.5811765 C22.1317647,34.7490196 22.1647059,34.9160784 22.1984314,35.0823529 C22.265098,35.4054902 22.3388235,35.7254902 22.4180392,36.0423529 C22.4635294,36.2243137 22.5098039,36.4054902 22.5592157,36.585098 C22.6462745,36.9011765 22.7388235,37.2133333 22.8376471,37.5231373 C22.8933333,37.6964706 22.9513725,37.8698039 23.0109804,38.0415686 C23.1027451,38.3066667 23.2,38.5678431 23.3003922,38.827451 C23.3898039,39.0572549 23.4815686,39.2854902 23.5772549,39.5105882 C23.6831373,39.7607843 23.7921569,40.0086275 23.9066667,40.252549 C23.9960784,40.4439216 24.0886275,40.6329412 24.1827451,40.8211765 C24.2713725,40.9960784 24.3631373,41.1686275 24.4556863,41.3403922 C27.6117647,47.2141176 33.16,51.1152941 39.4839216,51.1152941 L39.4839216,51.1152941 Z" id="Fill-52" fill="#37666E"></path>
            <path d="M29.0509804,23.4313725 C28.9694118,23.4313725 28.8886275,23.4 28.8266667,23.3380392 C28.7027451,23.2141176 28.7027451,23.0133333 28.8266667,22.8894118 L35.9545098,15.7607843 C36.0784314,15.6368627 36.28,15.6368627 36.4039216,15.7607843 C36.5278431,15.8847059 36.5278431,16.0862745 36.4039216,16.2101961 L29.2752941,23.3380392 C29.2133333,23.4 29.1317647,23.4313725 29.0509804,23.4313725 Z M29.0156863,20.6815686 L33.7466667,15.9505882 C33.8705882,15.8266667 34.0713725,15.8266667 34.1960784,15.9505882 C34.32,16.0745098 34.32,16.2752941 34.1960784,16.3992157 L29.4643137,21.1301961 C29.4023529,21.1921569 29.3215686,21.2235294 29.24,21.2235294 C29.1592157,21.2235294 29.0776471,21.1921569 29.0156863,21.1301961 C28.8917647,21.0062745 28.8917647,20.8054902 29.0156863,20.6815686 Z M39.4839216,48.4972549 C47.8368627,48.4972549 54.6329412,40.24 54.6329412,30.0901961 C54.6329412,19.9403922 47.8368627,11.6823529 39.4839216,11.6823529 C31.1301961,11.6823529 24.334902,19.9403922 24.334902,30.0901961 C24.334902,40.24 31.1301961,48.4972549 39.4839216,48.4972549 L39.4839216,48.4972549 Z" id="Fill-53" fill="#E6F1F6"></path>
            <path d="M36.4039216,15.7607843 C36.28,15.6368627 36.0784314,15.6368627 35.9545098,15.7607843 L28.8266667,22.8894118 C28.7027451,23.0133333 28.7027451,23.2141176 28.8266667,23.3380392 C28.8886275,23.4 28.9694118,23.4313725 29.0509804,23.4313725 C29.1317647,23.4313725 29.2133333,23.4 29.2752941,23.3380392 L36.4039216,16.2101961 C36.5278431,16.0862745 36.5278431,15.8847059 36.4039216,15.7607843" id="Fill-54" fill="#9E9F9E"></path>
            <path d="M29.24,21.2235294 C29.3215686,21.2235294 29.4023529,21.1921569 29.4643137,21.1301961 L34.1960784,16.3992157 C34.32,16.2752941 34.32,16.0745098 34.1960784,15.9505882 C34.0713725,15.8266667 33.8705882,15.8266667 33.7466667,15.9505882 L29.0156863,20.6815686 C28.8917647,20.8054902 28.8917647,21.0062745 29.0156863,21.1301961 C29.0776471,21.1921569 29.1592157,21.2235294 29.24,21.2235294" id="Fill-55" fill="#9E9F9E"></path>
        </g>
    </g>
</svg>