<?xml version="1.0" encoding="UTF-8"?>
<svg width="80px" height="80px" viewBox="0 0 80 80" version="1.1" xmlns="http://www.w3.org/2000/svg" xmlns:xlink="http://www.w3.org/1999/xlink">
    <title>Icons/GV gain/Solution Oriented</title>
    <g id="Icons/GV-gain/Solution-Oriented" stroke="none" stroke-width="1" fill="none" fill-rule="evenodd">
        <g id="Solution">
            <path d="M78.769704,39.9538639 C78.769704,61.612079 61.2122328,79.1695502 39.5540177,79.1695502 C17.8958026,79.1695502 0.338331411,61.612079 0.338331411,39.9538639 C0.338331411,18.2956488 17.8958026,0.738177624 39.5540177,0.738177624 C61.2122328,0.738177624 78.769704,18.2956488 78.769704,39.9538639" id="Fill-104" fill="#895491"></path>
            <g id="Group" transform="translate(18.231582, 18.110091)">
                <path d="M25.0871412,25.0871412 C23.8314703,26.3420432 21.7968682,26.3420432 20.5411974,25.0871412 C19.2862954,23.8314703 19.2862954,21.7968682 20.5411974,20.5411974 C21.7968682,19.2862954 23.8314703,19.2862954 25.0871412,20.5411974 C26.3420432,21.7968682 26.3420432,23.8314703 25.0871412,25.0871412 M17.8060955,17.8060955 C15.8460801,19.7653419 12.6696095,19.7653419 10.7103631,17.8060955 C8.75034768,15.846849 8.75034768,12.6696095 10.7103631,10.7103631 C12.6696095,8.75034768 15.8460801,8.75034768 17.8060955,10.7103631 C19.7653419,12.6696095 19.7653419,15.846849 17.8060955,17.8060955 M51.1271258,19.9921777 C43.4162454,13.3431966 35.2693788,12.2267029 30.4727621,12.2674565 C24.6373142,7.1217433 18.9141308,4.11674522 14.0337002,2.37049378 L2.37049378,14.0337002 C4.11674522,18.9141308 7.1217433,24.6373142 12.2674565,30.4727621 C13.090217,31.4062493 13.9644961,32.3420432 14.9010589,33.278606 C17.5915626,35.9691097 20.2828352,38.1744153 22.9049036,39.9860263 C23.9222047,40.6880639 24.9287406,41.3332004 25.9206668,41.9214357 L27.2886022,40.5535003 L29.5000593,40.6273181 L40.6273181,29.5000593 L40.5535003,27.2886022 L41.9214357,25.9206668 C41.3332004,24.9287406 40.6880639,23.9222047 39.9860263,22.9049036 C42.7065184,19.8276256 51.1271258,19.9921777 51.1271258,19.9921777" id="Fill-105" fill="#F1C62D"></path>
                <path d="M12.2674565,30.4727621 C12.225934,35.2693788 13.3431966,43.4162454 19.9921777,51.1271258 C19.9921777,51.1271258 19.8276256,42.7065184 22.9049036,39.9860263 C20.2828352,38.1744153 17.5915626,35.9691097 14.9010589,33.278606 C13.9644961,32.3420432 13.090217,31.4062493 12.2674565,30.4727621" id="Fill-106" fill="#E0B32C"></path>
                <path d="M10.7103631,10.7103631 C8.75034768,12.6696095 8.75034768,15.846849 10.7103631,17.8060955 C12.6696095,19.7653419 15.846849,19.7653419 17.8060955,17.8060955 C19.7653419,15.846849 19.7653419,12.6696095 17.8060955,10.7103631 C15.846849,8.75034768 12.6696095,8.75034768 10.7103631,10.7103631" id="Fill-107" fill="#F0A949"></path>
                <path d="M10.7103631,10.7103631 C8.75034768,12.6696095 8.75034768,15.846849 10.7103631,17.8060955 C12.6696095,19.7653419 15.846849,19.7653419 17.8060955,17.8060955 C19.7653419,15.846849 19.7653419,12.6696095 17.8060955,10.7103631 C15.846849,8.75034768 12.6696095,8.75034768 10.7103631,10.7103631" id="Fill-108" fill="#E0B32C"></path>
                <path d="M20.5411974,20.5411974 C19.2862954,21.7968682 19.2862954,23.8314703 20.5411974,25.0871412 C21.7968682,26.3420432 23.8314703,26.3420432 25.0871412,25.0871412 C26.3420432,23.8314703 26.3420432,21.7968682 25.0871412,20.5411974 C23.8314703,19.2862954 21.7968682,19.2862954 20.5411974,20.5411974" id="Fill-109" fill="#F0A949"></path>
                <path d="M20.5411974,20.5411974 C19.2862954,21.7968682 19.2862954,23.8314703 20.5411974,25.0871412 C21.7968682,26.3420432 23.8314703,26.3420432 25.0871412,25.0871412 C26.3420432,23.8314703 26.3420432,21.7968682 25.0871412,20.5411974 C23.8314703,19.2862954 21.7968682,19.2862954 20.5411974,20.5411974" id="Fill-110" fill="#E0B32C"></path>
                <path d="M0.0521546767,0.0521546767 C0.0521546767,0.0521546767 -0.554535058,5.85992092 2.37049378,14.0337002 L14.0337002,2.37049378 C5.85992092,-0.554535058 0.0521546767,0.0521546767 0.0521546767,0.0521546767" id="Fill-111" fill="#E0B32C"></path>
                <path d="M29.4823738,11.4131697 C23.9921777,6.78571869 18.6373142,4.01832154 14.0337002,2.37049378 C18.6373142,4.01832154 23.9921777,6.78571869 29.4823738,11.4131697" id="Fill-112" fill="#91619A"></path>
                <path d="M51.1271258,19.9921777 L51.1271258,19.9921777 L29.4508475,13.8837579 C29.4508475,13.8837579 16.829548,6.15980558 13.2493865,3.15557644 L14.0337002,2.37049378 C18.6373142,4.01832154 23.9921777,6.78571869 29.4823738,11.4131697 C29.8122469,11.6907552 30.1421201,11.9760301 30.4727621,12.2674565 C30.5550382,12.2666875 30.6373142,12.2659186 30.7211281,12.2659186 C35.5477333,12.2659186 43.5485022,13.456999 51.1271258,19.9921777" id="Fill-113" fill="#F3CB44"></path>
                <path d="M13.2493865,3.15557644 C12.3851035,2.42970177 12.0475411,1.97987478 12.5411974,1.97987478 C12.7987906,1.97987478 13.2816818,2.10136652 14.0337002,2.37049378 L13.2493865,3.15557644" id="Fill-114" fill="#E3B841"></path>
                <path d="M25.9206668,41.9214357 C24.9287406,41.3332004 23.9222047,40.6880639 22.9049036,39.9860263 C20.2828352,38.1744153 17.5915626,35.9691097 14.9010589,33.278606 C13.9644961,32.3420432 13.090217,31.4062493 12.2674565,30.4727621 C7.1217433,24.6373142 4.11674522,18.9141308 2.37049378,14.0337002 L5.20478828,11.1994057 C7.12328117,14.7864876 9.55772946,18.8456956 12.4727621,22.7564992 C20.5127468,33.5415818 29.5000593,40.6273181 29.5000593,40.6273181 L27.2886022,40.5535003 L25.9206668,41.9214357" id="Fill-116" fill="#C0A138"></path>
                <path d="M19.9921777,51.1271258 C13.4600747,43.551578 12.2674565,35.5561916 12.2659186,30.7288175 C12.2659186,30.6426968 12.2666875,30.557345 12.2674565,30.4727621 C13.090217,31.4062493 13.9644961,32.3420432 14.9010589,33.278606 C17.5915626,35.9691097 20.2828352,38.1744153 22.9049036,39.9860263 C20.1252035,42.4435426 19.9906399,49.5523469 19.9906399,50.9041347 C19.9906399,51.0486945 19.9921777,51.1271258 19.9921777,51.1271258" id="Fill-117" fill="#B69236"></path>
            </g>
        </g>
    </g>
</svg>