<?xml version="1.0" encoding="UTF-8"?>
<svg width="80px" height="80px" viewBox="0 0 80 80" version="1.1" xmlns="http://www.w3.org/2000/svg" xmlns:xlink="http://www.w3.org/1999/xlink">
    <title>Icons/GV gain/World Citizen</title>
    <g id="Icons/GV-gain/World-Citizen" stroke="none" stroke-width="1" fill="none" fill-rule="evenodd">
        <g id="World-Citizen">
            <path d="M79.4815686,39.9639216 C79.4815686,61.9011765 61.6972549,79.6854902 39.7592157,79.6854902 C17.8211765,79.6854902 0.0368627451,61.9011765 0.0368627451,39.9639216 C0.0368627451,18.0258824 17.8211765,0.241568627 39.7592157,0.241568627 C61.6972549,0.241568627 79.4815686,18.0258824 79.4815686,39.9639216" id="Fill-65" fill="#2AAF8D"></path>
            <path d="M55.3741176,63.5662745 L24.2172549,65.1992157 C22.5317647,65.2870588 21.1521569,63.9803922 21.1521569,62.294902 L21.1521569,15.6439216 C21.1521569,13.9584314 22.5317647,12.507451 24.2172549,12.4188235 L55.3741176,10.7858824 C57.0596078,10.6980392 58.4384314,12.0047059 58.4384314,13.6901961 L58.4384314,60.3403922 C58.4384314,62.0258824 57.0596078,63.4776471 55.3741176,63.5662745" id="Fill-66" fill="#30414F"></path>
            <path d="M55.3741176,64.1137255 L24.2172549,65.2015686 C22.5317647,65.2603922 21.1521569,63.9294118 21.1521569,62.2439216 L21.1521569,15.5929412 C21.1521569,13.907451 22.5317647,12.48 24.2172549,12.4211765 L55.3741176,11.3333333 C57.0596078,11.2745098 58.4384314,12.6054902 58.4384314,14.2909804 L58.4384314,60.9419608 C58.4384314,62.627451 57.0596078,64.054902 55.3741176,64.1137255" id="Fill-67" fill="#E4E4E3"></path>
            <path d="M55.3380392,64.6588235 L24.1803922,65.2023529 C22.494902,65.2321569 21.1160784,63.8768627 21.1160784,62.1913725 L21.1160784,15.5411765 C21.1160784,13.854902 22.494902,12.4517647 24.1803922,12.4227451 L55.3380392,11.8792157 C57.0235294,11.8494118 58.4023529,13.2047059 58.4023529,14.8901961 L58.4023529,61.5403922 C58.4023529,63.2258824 57.0235294,64.6290196 55.3380392,64.6588235" id="Fill-68" fill="#E4E4E3"></path>
            <path d="M25.0101961,65.3654902 C22.7733333,65.3654902 20.9537255,63.5458824 20.9537255,61.3090196 L20.9537255,16.3176471 C20.9537255,14.0807843 22.7733333,12.2611765 25.0101961,12.2611765 L54.5082353,12.2611765 C56.745098,12.2611765 58.5647059,14.0807843 58.5647059,16.3176471 L58.5647059,61.3090196 C58.5647059,63.5458824 56.745098,65.3654902 54.5082353,65.3654902 L25.0101961,65.3654902" id="Fill-69" fill="#30414F"></path>
            <path d="M54.3858824,34.9819608 C54.3858824,43.04 47.8533333,49.5717647 39.7952941,49.5717647 C31.7380392,49.5717647 25.2054902,43.04 25.2054902,34.9819608 C25.2054902,26.9239216 31.7380392,20.3921569 39.7952941,20.3921569 C47.8533333,20.3921569 54.3858824,26.9239216 54.3858824,34.9819608" id="Fill-70" fill="#64747F"></path>
            <path d="M39.7952941,22.3647059 C32.8384314,22.3647059 27.1780392,28.0243137 27.1780392,34.9819608 C27.1780392,41.9388235 32.8384314,47.5992157 39.7952941,47.5992157 C46.7529412,47.5992157 52.412549,41.9388235 52.412549,34.9819608 C52.412549,28.0243137 46.7529412,22.3647059 39.7952941,22.3647059 Z M39.7952941,48.212549 C32.5003922,48.212549 26.5647059,42.2776471 26.5647059,34.9819608 C26.5647059,27.6862745 32.5003922,21.7513725 39.7952941,21.7513725 C47.0909804,21.7513725 53.0266667,27.6862745 53.0266667,34.9819608 C53.0266667,42.2776471 47.0909804,48.212549 39.7952941,48.212549 L39.7952941,48.212549 Z" id="Fill-71" fill="#FFFFFE"></path>
            <path d="M39.7952941,22.3647059 C35.2141176,22.3647059 31.4870588,28.0243137 31.4870588,34.9819608 C31.4870588,41.9388235 35.2141176,47.5992157 39.7952941,47.5992157 C44.3764706,47.5992157 48.1035294,41.9388235 48.1035294,34.9819608 C48.1035294,28.0243137 44.3764706,22.3647059 39.7952941,22.3647059 Z M39.7952941,48.212549 C34.8760784,48.212549 30.8737255,42.2776471 30.8737255,34.9819608 C30.8737255,27.6862745 34.8760784,21.7513725 39.7952941,21.7513725 C44.7152941,21.7513725 48.7168627,27.6862745 48.7168627,34.9819608 C48.7168627,42.2776471 44.7152941,48.212549 39.7952941,48.212549 L39.7952941,48.212549 Z" id="Fill-72" fill="#FFFFFE"></path>
            <path d="M39.7952941,22.3647059 C38.2768627,22.3647059 36.585098,27.5458824 36.585098,34.9819608 C36.585098,42.4172549 38.2768627,47.5992157 39.7952941,47.5992157 C41.3145098,47.5992157 43.0062745,42.4172549 43.0062745,34.9819608 C43.0062745,27.5458824 41.3145098,22.3647059 39.7952941,22.3647059 Z M39.7952941,48.212549 C37.3113725,48.212549 35.9717647,41.3960784 35.9717647,34.9819608 C35.9717647,28.5678431 37.3113725,21.7513725 39.7952941,21.7513725 C42.2792157,21.7513725 43.6196078,28.5678431 43.6196078,34.9819608 C43.6196078,41.3960784 42.2792157,48.212549 39.7952941,48.212549 L39.7952941,48.212549 Z" id="Fill-73" fill="#FFFFFE"></path>
            <path d="M39.7952941,28.3819608 C32.8384314,28.3819608 27.1780392,31.3427451 27.1780392,34.9819608 C27.1780392,38.6211765 32.8384314,41.5819608 39.7952941,41.5819608 C46.7529412,41.5819608 52.412549,38.6211765 52.412549,34.9819608 C52.412549,31.3427451 46.7529412,28.3819608 39.7952941,28.3819608 Z M39.7952941,42.1952941 C36.2941176,42.1952941 32.9968627,41.4635294 30.5121569,40.1364706 C27.9670588,38.7756863 26.5647059,36.945098 26.5647059,34.9819608 C26.5647059,33.0188235 27.9670588,31.1882353 30.5121569,29.827451 C32.9968627,28.4996078 36.2941176,27.7686275 39.7952941,27.7686275 C43.2972549,27.7686275 46.5937255,28.4996078 49.0792157,29.827451 C51.6243137,31.1882353 53.0266667,33.0188235 53.0266667,34.9819608 C53.0266667,36.945098 51.6243137,38.7756863 49.0792157,40.1364706 C46.5937255,41.4635294 43.2972549,42.1952941 39.7952941,42.1952941 L39.7952941,42.1952941 Z" id="Fill-74" fill="#FFFFFE"></path>
            <polygon id="Fill-75" fill="#FFFFFE" points="26.8713725 35.3008941 52.6470588 35.3008941 52.6470588 34.6752941 26.8713725 34.6752941"></polygon>
        </g>
    </g>
</svg>